<?xml version="1.0" standalone="no"?>
<svg
  width="600"
  height="600"
  viewBox="0 0 600 600"
  xmlns="http://www.w3.org/2000/svg"
>
  <g transform="translate(300,300)">
    <path id="blob1" d="M115.8,-133.4C157.5,-103.1,203.8,-73.6,225,-28.6C246.1,16.4,242.2,77,214.2,122.1C186.2,167.2,134.3,196.8,87.7,193C41,189.2,-0.3,151.9,-50.6,135.3C-100.9,118.6,-160,122.5,-194.7,96.1C-229.5,69.6,-239.8,12.8,-223.6,-32.6C-207.5,-77.9,-164.8,-111.7,-123.1,-142.1C-81.4,-172.4,-40.7,-199.2,-1.8,-197C37.1,-194.8,74.1,-163.7,115.8,-133.4Z" />
  </g>
</svg>
    